<svg width="233" height="54" viewBox="0 0 233 54" fill="none" xmlns="http://www.w3.org/2000/svg">
<path d="M35.4376 32.3466C37.3169 28.3113 37.6865 23.7358 36.4793 19.4512C35.272 15.1666 32.568 11.4571 28.8584 8.99662C31.8389 5.93365 35.0667 2.89815 38.4731 0C34.4989 2.36266 30.7272 5.05022 27.1964 8.03515C23.3637 6.03661 18.9546 5.43551 14.7268 6.33516C10.499 7.23481 6.71662 9.57902 4.02971 12.9649C1.3428 16.3507 -0.0808139 20.5668 0.00354475 24.8884C0.0879034 29.2101 1.67497 33.3673 4.49197 36.6458C0.934524 44.3513 0.371377 50.5322 3.44808 52.6199C6.81323 54.8588 14.1204 50.7931 18.5569 44.1864C18.5569 44.1864 11.7717 50.2987 8.04941 48.8977C5.75561 48.0323 5.75561 44.5161 7.63735 39.489C11.2026 42.1046 15.5832 43.3642 19.9933 43.042C24.4033 42.7199 28.5543 40.8369 31.7016 37.7309L32.3609 38.967C40.4647 38.3077 64.6526 37.6622 64.6526 37.6622C64.5976 36.5222 48.5823 37.621 35.4376 32.3466ZM2.22564 24.5038C2.22856 21.7661 2.91793 19.0729 4.23068 16.6704C5.54342 14.268 7.43764 12.2332 9.74002 10.752C12.0424 9.2708 14.6795 8.39061 17.4099 8.19193C20.1404 7.99325 22.8771 8.48243 25.3696 9.61471C17.3407 16.6375 10.6369 25.0439 5.57705 34.4344C3.39646 31.5838 2.21832 28.0928 2.22564 24.5038ZM18.5844 40.8625C14.9117 40.8695 11.3445 39.6353 8.46147 37.36C11.703 30.0528 18.2959 20.2458 27.2926 10.6586C30.672 12.7866 33.1563 16.0773 34.2771 19.9104C35.3979 23.7434 35.0779 27.8541 33.3773 31.4676C30.5378 30.1932 27.9148 28.4832 25.6031 26.3992L30.5341 35.6568C29.0074 37.2998 27.1582 38.6101 25.1021 39.5058C23.046 40.4015 20.8271 40.8634 18.5844 40.8625Z" fill="#DCDCDC"/>
<path d="M146.364 22.8006L149.386 18.7762H138.837L141.433 15.3286H151.995L155.031 11.3042H133.961L119.47 30.5336H140.54L143.562 26.5092H133.013L135.802 22.8006H146.364Z" fill="#DCDCDC"/>
<path d="M160.992 11.3042L146.501 30.5336H157.022L171.499 11.3042H160.992Z" fill="#DCDCDC"/>
<path d="M196.017 11.3042L188.669 21.0563L186.416 11.3042H178.202L163.712 30.5336H170.662L177.941 20.8777L180.18 30.5336H188.476L202.967 11.3042H196.017Z" fill="#DCDCDC"/>
<path d="M230.383 11.3044H213.488C212.116 11.3028 210.762 11.621 209.534 12.2337C208.306 12.8464 207.238 13.7369 206.414 14.8343L197.693 26.4132C197.352 26.8588 197.169 27.4045 197.171 27.9653C197.171 28.6478 197.441 29.3025 197.922 29.7864C198.403 30.2702 199.057 30.5439 199.739 30.5475H216.634C218.008 30.5502 219.364 30.2325 220.594 29.6198C221.824 29.0071 222.895 28.1161 223.721 27.0175L225.822 24.2705H228.267L231.317 20.1499H218.378L214.257 25.5753C214.043 25.8615 213.766 26.0937 213.446 26.2534C213.127 26.4132 212.774 26.4961 212.417 26.4956H209.436C209.258 26.4956 209.087 26.4247 208.96 26.2985C208.834 26.1723 208.763 26.0011 208.763 25.8226C208.762 25.678 208.811 25.5374 208.901 25.4243L215.768 16.2216C215.981 15.9347 216.259 15.7019 216.579 15.542C216.898 15.3822 217.251 15.2997 217.609 15.3013H220.589C220.678 15.3013 220.765 15.3187 220.847 15.3526C220.929 15.3864 221.003 15.436 221.065 15.4985C221.128 15.561 221.177 15.6352 221.211 15.7168C221.245 15.7985 221.262 15.886 221.262 15.9744C221.258 16.1181 221.211 16.2572 221.125 16.3727L219.999 17.8698H230.492L232.347 15.3975C232.636 15.0156 232.813 14.5602 232.858 14.0829C232.902 13.6056 232.812 13.1254 232.598 12.6967C232.383 12.2679 232.053 11.9077 231.645 11.6568C231.236 11.4059 230.766 11.2743 230.286 11.2769L230.383 11.3044Z" fill="#DCDCDC"/>
<path d="M125.335 13.8869C125.335 13.2057 125.064 12.5524 124.583 12.0707C124.101 11.589 123.448 11.3184 122.766 11.3184H105.872C104.498 11.3157 103.142 11.6333 101.911 12.2461C100.681 12.8588 99.6105 13.7498 98.7846 14.8483L90.0627 26.4272C89.7784 26.8105 89.6059 27.2651 89.5643 27.7405C89.5227 28.2159 89.6136 28.6936 89.8271 29.1204C90.0405 29.5473 90.368 29.9066 90.7733 30.1586C91.1786 30.4105 91.6458 30.5453 92.123 30.5478H109.017C110.392 30.5505 111.748 30.2328 112.978 29.6201C114.208 29.0074 115.279 28.1164 116.105 27.0178L124.827 15.439C125.161 14.9911 125.34 14.4459 125.335 13.8869ZM113.591 16.4004L106.724 25.5893C106.51 25.8763 106.233 26.1091 105.913 26.2689C105.593 26.4288 105.241 26.5112 104.883 26.5096H101.848C101.724 26.5084 101.603 26.473 101.498 26.4073C101.393 26.3417 101.308 26.2484 101.252 26.1376C101.197 26.0268 101.173 25.903 101.184 25.7796C101.194 25.6562 101.239 25.5381 101.312 25.4383L108.18 16.2356C108.395 15.9511 108.673 15.72 108.992 15.5604C109.312 15.4008 109.663 15.3169 110.02 15.3153H113.001C113.179 15.3153 113.35 15.3863 113.477 15.5125C113.603 15.6387 113.674 15.8099 113.674 15.9884C113.67 16.1321 113.622 16.2712 113.536 16.3867L113.591 16.4004Z" fill="#DCDCDC"/>
<path d="M85.5986 21.3859C87.6403 20.923 89.4511 19.7499 90.7081 18.0757L92.7135 15.4248C93.0032 15.0429 93.1802 14.5875 93.2245 14.1102C93.2688 13.6329 93.1787 13.1528 92.9643 12.724C92.75 12.2953 92.4199 11.9351 92.0115 11.6842C91.603 11.4333 91.1325 11.3017 90.6532 11.3042H69.336L54.8453 30.5337H76.9042C78.2785 30.5363 79.6346 30.2187 80.8649 29.6059C82.0951 28.9932 83.1657 28.1022 83.9916 27.0037L86.0381 24.2566C86.3083 23.9014 86.4532 23.4667 86.4502 23.0204C86.4497 22.6973 86.3736 22.3787 86.2282 22.0902C86.0827 21.8016 85.8718 21.5511 85.6123 21.3585L85.5986 21.3859ZM75.8465 23.8858L74.5417 25.6164C74.3278 25.9025 74.05 26.1347 73.7304 26.2945C73.4109 26.4543 73.0584 26.5372 72.7012 26.5367H68.402L71.1491 22.8281H75.2697C75.4482 22.8281 75.6193 22.8991 75.7456 23.0253C75.8718 23.1515 75.9427 23.3227 75.9427 23.5012C75.9427 23.6456 75.8944 23.7858 75.8053 23.8995L75.8465 23.8858ZM81.478 16.4138L80.3655 17.8834C80.1494 18.1663 79.8708 18.3952 79.5515 18.5525C79.2322 18.7098 78.8808 18.791 78.5249 18.79H74.2258L76.8218 15.3424H80.9423C81.0307 15.3424 81.1182 15.3598 81.1999 15.3936C81.2816 15.4275 81.3557 15.477 81.4182 15.5395C81.4807 15.602 81.5303 15.6762 81.5641 15.7579C81.598 15.8395 81.6154 15.9271 81.6154 16.0154C81.6115 16.1592 81.5636 16.2982 81.478 16.4138Z" fill="#DCDCDC"/>
</svg>
