<svg width="142" height="67" viewBox="0 0 142 67" fill="none" xmlns="http://www.w3.org/2000/svg">
<path d="M7.79422 39.328H14.9846C16.3475 39.328 17.6207 40.3235 17.6898 41.6427H17.7553V36.2214H7.79422L7.78937 26.7054H17.4C18.7689 26.7054 20.0433 27.6972 20.1149 29.0129H20.1779L20.1682 23.5879L0 23.5964V23.6558C1.35805 23.7298 2.37658 25.1679 2.37658 26.5114V51.44C2.37658 52.7787 1.35805 54.2228 0 54.2992V54.3574H10.1757V54.2992C8.8164 54.2228 7.78937 52.7787 7.78937 51.44L7.79422 39.328Z" fill="#DCDCDC"/>
<path d="M28.6153 46.085C28.6153 49.2837 31.2829 52.0495 34.5749 52.0495C37.8633 52.0495 40.5406 49.2473 40.5406 46.0474V26.5109C40.5406 25.1675 39.5185 23.7294 38.1568 23.6554V23.5972L48.3397 23.5875V23.6554C46.9804 23.7294 45.951 25.1675 45.951 26.5109V45.4945C45.951 51.6045 40.885 55.1646 34.6016 55.1646C28.3073 55.1646 23.1867 51.6045 23.1867 45.4945L23.2001 26.5109C23.2001 25.1675 22.173 23.7294 20.821 23.6554V23.5875H30.9894V23.6554C29.6338 23.7367 28.6104 25.1759 28.6104 26.5109L28.6153 46.085Z" fill="#DCDCDC"/>
<path d="M111.817 28.5701C110.111 25.8213 106.218 26.1523 106.218 26.1523C99.8494 26.1523 100.15 30.9964 100.15 30.9964C100.15 30.9964 99.7123 33.4264 102.912 35.0839L109.279 38.4572C115.426 41.7456 114.697 46.4188 114.697 46.4188C114.697 46.4188 114.975 55.1491 102.12 55.1491C102.12 55.1491 98.3858 55.2631 96.2711 54.4725L94.462 48.8184H94.5251C96.4833 51.6339 102.173 52.0401 102.173 52.0401C109.396 51.7236 109.445 46.8298 109.445 46.8298C109.445 46.8298 109.77 44.7224 106.943 43.1958L100.606 39.8237C93.9904 36.2989 94.7482 31.5518 94.7482 31.5518C94.7482 31.5518 94.5918 22.9633 105.964 22.9633C105.964 22.9633 111.069 23.0943 111.883 23.8885V28.5701H111.817Z" fill="#DCDCDC"/>
<path d="M62.2014 12.8908C63.3291 13.9942 64.903 14.672 66.6211 14.672C70.0829 14.672 72.8851 11.9486 72.8851 8.58261C72.8851 5.22629 70.0829 2.49807 66.6211 2.49807C66.6211 2.49807 61.7989 2.05307 59.6284 8.05273L59.6357 3.54934C61.2508 1.49408 63.751 0.000228882 66.6211 0.000228882C71.5053 0.000228882 75.4569 3.83914 75.4569 8.58261C75.4569 13.3188 71.5053 17.1723 66.6211 17.1723C64.1815 17.1723 61.9747 16.2156 60.3802 14.655L57.3415 11.3339C56.5085 10.5251 55.3627 10.0328 54.1065 10.0328C51.5759 10.0328 49.5243 12.0214 49.5243 14.478C49.5243 16.9443 51.5759 18.9377 54.1065 18.9377C54.1065 18.9377 57.4907 19.3791 59.6284 15.3013L59.6357 18.9074C58.3261 20.4522 56.3266 21.438 54.1065 21.438C50.156 21.438 46.9476 18.3218 46.9476 14.478C46.9476 10.6415 50.156 7.53255 54.1065 7.53255C56.0744 7.53255 57.8617 8.3013 59.1592 9.56962L62.2014 12.8908Z" fill="#DCDCDC"/>
<path d="M63.8296 26.4461C63.8296 25.1014 62.8062 23.7239 61.4493 23.6548V23.5966H71.6092V23.6548C70.2609 23.73 69.2327 25.1087 69.2327 26.4461V51.4281C69.2327 52.7692 70.2609 54.2121 71.6092 54.2921V54.3491H61.4493V54.2921C62.8062 54.2121 63.8296 52.7692 63.8296 51.4281V26.4461Z" fill="#DCDCDC"/>
<path d="M57.449 26.5112C57.449 25.1678 58.47 23.7297 59.828 23.6557V23.5963H49.6524V23.6557C51.0141 23.7297 52.0302 25.1678 52.0302 26.5112L52.0387 57.7427C52.0387 57.7427 51.9247 63.2574 47.4819 66.4306L47.4928 66.4912C48.3695 66.3481 57.4563 64.6712 57.4563 55.8936L57.449 26.5112Z" fill="#DCDCDC"/>
<path d="M71.5715 29.1307H71.6322C73.0096 26.7335 75.134 26.7056 75.134 26.7056H80.6426L80.6462 51.4402C80.6462 52.7789 79.6216 54.2121 78.2648 54.2921V54.3491H88.4538V54.2921C87.086 54.2121 86.0578 52.7692 86.0578 51.4402L86.0651 26.7056L90.6691 26.6947C92.0671 26.6947 93.1742 27.7787 93.2142 29.1307H93.27L94.9615 23.5869H73.2679L71.5715 29.1307Z" fill="#DCDCDC"/>
<path d="M122.278 46.085C122.278 49.2837 124.945 52.0495 128.238 52.0495C131.523 52.0495 134.203 49.2473 134.203 46.0474V26.5109C134.203 25.1675 133.18 23.7294 131.824 23.6554V23.5972L142 23.5875V23.6554C140.65 23.7294 139.622 25.1675 139.622 26.5109V45.4945C139.622 51.6045 134.553 55.1646 128.26 55.1646C121.978 55.1646 116.856 51.6045 116.856 45.4945L116.864 26.5109C116.864 25.1675 115.839 23.7294 114.48 23.6554V23.5875H124.658V23.6554C123.295 23.7367 122.27 25.1759 122.27 26.5109L122.278 46.085Z" fill="#DCDCDC"/>
</svg>
