<svg width="182" height="39" viewBox="0 0 182 39" fill="none" xmlns="http://www.w3.org/2000/svg">
<path d="M41.4519 0.000175476H0.000915527V38.2427L41.4519 0.000175476Z" fill="#DCDCDC"/>
<path d="M20.7227 -0.000221252H0V19.1299L20.7227 -0.000221252Z" fill="#DCDCDC"/>
<path d="M99.3335 8.301L93.9227 29.9346H103.483L108.889 8.301H99.3335Z" fill="#DCDCDC"/>
<path d="M77.4998 20.8392H75.3073L78.8423 14.5983L79.9889 20.8392H77.4998ZM76.1396 8.29869L63.8448 29.9312H70.1676L72.2084 26.3254H80.986L81.6401 29.9312H90.9722L87.0056 8.29869H76.1396Z" fill="#DCDCDC"/>
<path d="M142.993 8.301L137.596 29.9346H147.154L152.552 8.301H142.993Z" fill="#DCDCDC"/>
<path d="M138.721 8.301H128.925L120.725 15.3775L122.515 8.301H113.352L107.955 29.9346H117.089L118.955 22.4662L123.839 29.9346H134.896L126.707 18.6048L138.721 8.301Z" fill="#DCDCDC"/>
<path d="M56.3434 18.1322C56.3434 18.1322 55.7225 25.159 49.735 25.159H46.3472L49.331 13.4905H52.4056C53.5057 13.4972 56.6898 13.7827 56.3434 18.1322ZM55.8586 8.31097L53.3861 8.30322H41.4244L36.0279 29.9279H47.9055L52.6048 29.9346C59.2209 29.9346 65.7319 25.0096 65.7319 17.466C65.7319 8.58987 55.8586 8.31097 55.8586 8.31097Z" fill="#DCDCDC"/>
<path d="M175.383 8.29769L172.194 21.0363L167.947 8.29769H157.315L151.914 29.9346H158.525L161.745 17.0841L166.006 29.9346H176.592L182 8.29769H175.383Z" fill="#DCDCDC"/>
</svg>
