<svg width="181" height="28" viewBox="0 0 181 28" fill="none" xmlns="http://www.w3.org/2000/svg">
<path d="M172.365 26.9723H180.145L172.117 0.477501L161.061 0.477051L153.033 26.9719H160.816L162.234 22.0674H170.94L172.365 26.9719V26.9723ZM163.919 16.176L166.567 7.02217H166.612L169.26 16.176H163.919Z" fill="#DCDCDC"/>
<path d="M38.8396 27.4474C46.829 27.4474 50.6909 26.04 51.238 18.8308C51.3687 17.1154 51.3934 15.3542 51.3934 13.7217C51.3957 12.0947 51.3687 10.3318 51.238 8.61657C50.6909 1.40513 46.829 0 38.8396 0C30.8501 0 26.9905 1.40513 26.4456 8.61657C26.3127 10.3318 26.2857 12.0947 26.2857 13.7217C26.288 15.3542 26.3127 17.1154 26.4456 18.8308C26.9905 26.04 30.8501 27.4474 38.8396 27.4474ZM33.8158 13.7217C33.8158 12.2668 33.8518 11.4068 33.8833 10.7686C34.086 6.6791 35.7005 6.2024 38.8396 6.2024C41.9808 6.2024 43.5954 6.6791 43.7958 10.7686C43.8273 11.4066 43.8656 12.2665 43.8656 13.7217C43.8656 15.1813 43.8273 16.0428 43.7958 16.6794C43.5954 20.7696 41.9808 21.2472 38.8396 21.2472C35.7005 21.2472 34.086 20.7696 33.8833 16.6794C33.8518 16.0428 33.8158 15.1813 33.8158 13.7217V13.7217Z" fill="#DCDCDC"/>
<path d="M0 0.489258V7.09405H7.92008V26.9836H15.8431V7.09405H23.7634V0.489258H0Z" fill="#DCDCDC"/>
<path d="M121.564 26.9723V0.477051H114.045V26.9723H121.564Z" fill="#DCDCDC"/>
<path d="M91.3112 10.1506V0.477051H83.8352V26.9723H91.3112V16.7554H99.9987V26.9723H107.472V0.477051H99.9987V10.1506H91.3112Z" fill="#DCDCDC"/>
<path d="M146.294 13.1251C149.624 12.2737 150.601 10.2842 150.601 7.40862C150.601 1.58566 146.938 0.477539 141.729 0.477539H128.23V26.9724H142.398C148.921 26.9724 151.115 24.1621 151.115 19.8398C151.115 16.8262 150.426 14.1672 146.294 13.1244V13.1251ZM135.703 16.0898H140.887C142.981 16.0898 143.418 17.0072 143.418 18.4993C143.418 19.9927 142.598 20.9125 140.887 20.9125H135.703V16.0898ZM135.703 6.53649H140.887C142.24 6.53649 143.078 7.17849 143.078 8.72255C143.078 10.0462 142.249 10.8609 140.887 10.8609H135.703V6.53649Z" fill="#DCDCDC"/>
<path d="M55.7506 18.2776H62.8776C62.8844 19.563 63.0487 20.422 63.6725 20.8965C64.3818 21.4311 65.0168 21.6076 67.1223 21.6076C69.1489 21.6076 71.3692 21.6076 71.3692 19.1115C71.3692 17.1429 70.1284 16.6937 67.8383 16.5716C62.1593 16.2708 60.1056 16.1102 57.9912 14.5394C56.55 13.4682 55.8024 11.3828 55.8024 8.56262C55.8024 3.76693 57.4755 2.0846 59.8894 0.910729C62.3799 -0.300972 72.1551 -0.300972 74.7852 0.910729C78.0931 2.43476 78.1899 5.73411 78.1899 8.79455H71.081C71.0674 7.23427 70.7162 6.79359 70.4302 6.50333C69.6916 5.84851 68.64 5.71024 67.1223 5.71024C65.2848 5.71024 63.1591 5.79311 63.1591 8.02443C63.1591 9.7268 63.8954 10.4384 65.8275 10.5636C68.4824 10.7334 73.7133 10.9007 75.5778 12.0009C78.1922 13.5472 78.87 15.6396 78.87 19.0534C78.87 23.9866 77.1046 25.4346 74.6478 26.5199C71.8128 27.7719 62.3439 27.7719 59.2657 26.4231C55.8204 24.9211 55.7506 21.9276 55.7506 18.2776" fill="#DCDCDC"/>
</svg>
